<?xml version="1.0" encoding="UTF-8" standalone="no"?>
<!-- Created with Inkscape (http://www.inkscape.org/) -->

<svg
   width="586.68719"
   height="173.10602"
   viewBox="0 0 155.22707 45.80094"
   version="1.1"
   id="svg1"
   inkscape:version="1.3.2 (091e20e, 2023-11-25, custom)"
   sodipodi:docname="stíhačka_MYG-15.svg"
   inkscape:export-filename="bomber22.png"
   inkscape:export-xdpi="96"
   inkscape:export-ydpi="96"
   xml:space="preserve"
   xmlns:inkscape="http://www.inkscape.org/namespaces/inkscape"
   xmlns:sodipodi="http://sodipodi.sourceforge.net/DTD/sodipodi-0.dtd"
   xmlns="http://www.w3.org/2000/svg"
   xmlns:svg="http://www.w3.org/2000/svg"><sodipodi:namedview
     id="namedview1"
     pagecolor="#ffffff"
     bordercolor="#000000"
     borderopacity="0.25"
     inkscape:showpageshadow="2"
     inkscape:pageopacity="0.0"
     inkscape:pagecheckerboard="0"
     inkscape:deskcolor="#d1d1d1"
     inkscape:document-units="mm"
     inkscape:zoom="2.8284271"
     inkscape:cx="178.36769"
     inkscape:cy="54.270446"
     inkscape:window-width="1920"
     inkscape:window-height="1009"
     inkscape:window-x="-8"
     inkscape:window-y="-8"
     inkscape:window-maximized="1"
     inkscape:current-layer="layer1" /><defs
     id="defs1" /><g
     inkscape:label="Vrstva 1"
     inkscape:groupmode="layer"
     id="layer1"
     transform="translate(-1.473871,-0.15094782)"><path
       style="fill:#d3bc5f;fill-opacity:1;fill-rule:evenodd;stroke:#000000;stroke-width:0.558;stroke-linecap:square;stroke-linejoin:round;stroke-miterlimit:10;stroke-dasharray:none;stroke-opacity:1;paint-order:stroke fill markers"
       d="m 45.375762,21.034363 24.870819,3.439581 1.058333,-3.174998 v 3.30729 l 8.863537,1.455207 h 5.953121 l 4.630206,-1.190624 5.556247,-0.529166 22.224985,-0.396875 0.39688,-1.058333 h -3.70417 v -0.396874 h 3.57187 l 0.1323,-0.926042 c 0,0 5.0628,-1.287806 5.60068,-0.328977 0.53788,0.958829 0.91206,1.753955 0.91206,2.174904 0,0.42095 -0.0468,0.678196 -0.0468,0.678196 l 7.36662,0.02339 1.23946,0.374177 1.37978,0.678196 0.8419,0.888671 0.88867,1.052374 3.97563,0.608036 5.44895,0.935444 0.58466,-1.683797 0.23386,1.800727 2.26844,0.491106 2.15152,0.608039 4.06918,1.987816 c 0,0 0.98222,0.958828 0.39756,2.408765 -0.58465,1.449937 -2.66601,4.373195 -2.66601,4.373195 l -1.37978,0.678195 -14.2655,2.151519 -11.31886,0.163703 -12.90911,0.257246 -12.76459,0.05198 -15.345824,-0.661458 c 0,0 -0.760677,-0.330729 -0.826823,0.09922 -0.06615,0.429947 -0.297656,1.984374 -0.562239,2.51354 -0.264583,0.529166 -0.959114,1.322916 -1.322916,1.455207 -0.363802,0.132292 -2.121679,0.309884 -2.51354,0.231511 -0.37207,-0.07442 -1.630363,-0.65439 -1.819009,-0.926041 -0.206706,-0.297656 -0.357041,-0.492701 -0.959114,-2.116666 l -3.108853,0.132292 -0.09922,-0.727604 3.274216,0.06615 V 41.142684 L 57.910391,39.356748 44.54894,38.099978 V 37.173937 L 37.041392,36.446333 35.817695,37.471593 7.11042,34.627324 6.6143266,34.528105 V 34.13123 L 6.2505247,34.098157 6.3497434,33.734355 5.3906294,32.907533 5.1591191,31.749982 1.8518293,31.61769 1.7526107,31.187742 h 3.2742168 l 0.5953121,-1.223697 1.0583328,-0.793749 0.7276037,-0.56224 H 8.1687527 L 9.2932313,25.56535 11.013022,25.532277 15.411718,6.6145795 16.403904,4.3986954 17.859112,2.6127589 19.512757,1.5544262 21.397912,0.89296823 22.985411,0.42994767 h 2.315103 l 1.455207,0.49609346 1.719791,0.82682247 1.819009,1.4221346 1.25677,1.289843 0.661458,1.1906243 0.661458,1.5544262 0.661458,1.4882803 0.859895,2.480467 1.686718,2.976561 2.017447,2.480468 3.505727,2.97656 z"
       id="path1"
       sodipodi:nodetypes="ccccccccccccccsscccccccccccccscccccccsssssccccccccccccccccccccccccccccccccccccccccccccc" /><path
       id="rect1"
       style="fill:#80b3ff;fill-opacity:0.96701;fill-rule:evenodd;stroke:#000000;stroke-width:0.558001;stroke-linecap:square;stroke-miterlimit:10;stroke-opacity:1;paint-order:stroke fill markers"
       d="m 9.284017,26.285942 h 0.678196 v 1.683797 H 8.629207 Z"
       sodipodi:nodetypes="ccccc" /><rect
       style="fill:#80b3ff;fill-opacity:1;fill-rule:evenodd;stroke:#000000;stroke-width:0.558001;stroke-linecap:square;stroke-linejoin:miter;stroke-miterlimit:10;stroke-dasharray:none;stroke-opacity:1;paint-order:stroke fill markers"
       id="rect2"
       width="2.7829423"
       height="1.660411"
       x="10.745303"
       y="26.291616" /><rect
       style="fill:#80b3ff;fill-opacity:1;fill-rule:evenodd;stroke:#000000;stroke-width:0.558001;stroke-linecap:square;stroke-linejoin:miter;stroke-miterlimit:10;stroke-dasharray:none;stroke-opacity:1;paint-order:stroke fill markers"
       id="rect3"
       width="1.005601"
       height="1.005601"
       x="14.14832"
       y="26.239172" /><rect
       style="fill:#80b3ff;fill-opacity:1;fill-rule:evenodd;stroke:#000000;stroke-width:0.558001;stroke-linecap:square;stroke-linejoin:miter;stroke-miterlimit:10;stroke-dasharray:none;stroke-opacity:1;paint-order:stroke fill markers"
       id="rect4"
       width="2.3481758"
       height="1.7197907"
       x="120.31895"
       y="26.524464" /><path
       id="rect5"
       style="fill:#80b3ff;fill-opacity:1;fill-rule:evenodd;stroke:#000000;stroke-width:0.558001;stroke-linecap:square;stroke-miterlimit:10;stroke-opacity:1;paint-order:stroke fill markers"
       d="m 127.95879,26.127588 h 3.47266 l 1.28984,1.719791 h -4.7625 z"
       sodipodi:nodetypes="ccccc" /><path
       id="rect6"
       style="fill:#80b3ff;fill-opacity:1;fill-rule:evenodd;stroke:#000000;stroke-width:0.558001;stroke-linecap:square;stroke-miterlimit:10;stroke-opacity:1;paint-order:stroke fill markers"
       d="m 133.25044,26.127588 h 2.34818 l 0.79375,0.926041 -1.81901,0.79375 z"
       sodipodi:nodetypes="ccccc" /><path
       style="fill:#000000;fill-opacity:1;fill-rule:evenodd;stroke:#000000;stroke-width:0.558001;stroke-linecap:square;stroke-linejoin:miter;stroke-miterlimit:10;stroke-dasharray:none;stroke-opacity:1;paint-order:stroke fill markers"
       d="m 152.19629,30.027714 0.28063,9.120569 1.12254,-0.654812 2.75955,-4.396581 0.0325,-1.10719 -0.40673,-0.950783 z"
       id="path6"
       sodipodi:nodetypes="ccccccc" /><path
       id="path15"
       style="fill:#6c5d53;fill-opacity:1;fill-rule:evenodd;stroke:#000000;stroke-width:0.321227;stroke-linecap:square;stroke-linejoin:miter;stroke-miterlimit:10;stroke-dasharray:none;stroke-opacity:1;paint-order:stroke fill markers"
       d="m 121.23379,28.424304 a 3.9497682,6.1038004 0 0 0 -0.6025,0.07893 v 12.049744 a 3.9497682,6.1038004 0 0 0 0.6025,0.07893 3.9497682,6.1038004 0 0 0 2.47698,-1.359871 v -9.496082 a 3.9497682,6.1038004 0 0 0 -2.47698,-1.351651 z" /><rect
       style="fill:#decd87;fill-opacity:1;fill-rule:evenodd;stroke:#000000;stroke-width:0.192812;stroke-linecap:square;stroke-linejoin:miter;stroke-miterlimit:10;stroke-dasharray:none;stroke-opacity:1;paint-order:stroke fill markers"
       id="rect15"
       width="2.6787281"
       height="9.8224735"
       x="118.18584"
       y="29.286139" /><ellipse
       style="fill:#784421;fill-opacity:1;fill-rule:evenodd;stroke:#000000;stroke-width:0.358;stroke-linecap:square;stroke-linejoin:miter;stroke-miterlimit:10;stroke-dasharray:none;stroke-opacity:1;paint-order:stroke fill markers"
       id="ellipse18"
       cx="125.2799"
       cy="28.839565"
       rx="1.1244785"
       ry="5.5231738" /><path
       id="rect16"
       style="fill:#a0892c;fill-rule:evenodd;stroke:#000000;stroke-width:0.467776;stroke-linecap:square;stroke-miterlimit:10;paint-order:stroke fill markers"
       d="m 104.71533,30.878829 13.74476,-2.116666 v 11.2673 l -13.74476,-3.174998 z"
       sodipodi:nodetypes="ccccc" /><path
       id="rect17"
       style="fill:#ffd42a;fill-opacity:1;fill-rule:evenodd;stroke:#000000;stroke-width:0.317557;stroke-linecap:square;stroke-linejoin:miter;stroke-miterlimit:10;stroke-dasharray:none;stroke-opacity:1;paint-order:stroke fill markers"
       d="m 127.52058,33.597862 a 0.71318647,0.9460948 0 0 0 -0.12338,0.01584 h -3.46047 v 1.89219 h 3.46406 v -0.03062 a 0.71318647,0.9460948 0 0 0 0.11979,0.01478 0.71318647,0.9460948 0 0 0 0.71318,-0.946095 0.71318647,0.9460948 0 0 0 -0.71318,-0.946095 z" /><ellipse
       style="fill:#502d16;fill-opacity:1;fill-rule:evenodd;stroke:#000000;stroke-width:0.358;stroke-linecap:square;stroke-linejoin:miter;stroke-miterlimit:10;stroke-dasharray:none;stroke-opacity:1;paint-order:stroke fill markers"
       id="ellipse19"
       cx="125.31297"
       cy="40.249714"
       rx="1.1244785"
       ry="5.5231738" /><rect
       style="fill:#000000;fill-opacity:1;fill-rule:evenodd;stroke:#000000;stroke-width:0.340189;stroke-linecap:square;stroke-linejoin:miter;stroke-miterlimit:10;stroke-dasharray:none;stroke-opacity:1;paint-order:stroke fill markers"
       id="rect19"
       width="2.1344776"
       height="3.1928101"
       x="124.01421"
       y="32.931702" /><path
       style="fill:#a0892c;fill-opacity:1;fill-rule:evenodd;stroke:#000000;stroke-width:0.372242;stroke-linecap:square;stroke-linejoin:miter;stroke-miterlimit:10;stroke-dasharray:none;stroke-opacity:1;paint-order:stroke fill markers"
       d="m 24.203444,28.021121 4.118619,-0.343218 4.399435,-0.249614 4.586643,-0.0312 3.775401,0.124805 2.589737,0.37442 1.154462,0.218413 0.312017,0.187209 0.37442,0.156008 0.343218,0.280815 0.218412,0.374422 0.0624,0.280814 0.0312,0.249613 v 0.280815 l -0.124807,0.249612 -0.156008,0.249615 -0.218412,0.21841 -0.312017,0.218412 -0.405621,0.124808 -0.436824,0.249612 -0.468024,0.0936 -0.74884,0.124808 -0.530429,0.0624 -0.967251,0.0312 -1.435276,0.156008 -2.776948,0.09361 -3.369779,-0.09361 -3.712998,-0.18721 -2.683342,-0.18721 -3.120166,-0.405622 -7.987625,-1.372872 z"
       id="path7" /><path
       style="fill:#d3bc5f;fill-opacity:1;fill-rule:evenodd;stroke:#000000;stroke-width:0.238082;stroke-linecap:square;stroke-linejoin:miter;stroke-miterlimit:10;stroke-dasharray:none;stroke-opacity:1;paint-order:stroke fill markers"
       d="m 28.417532,28.522877 2.634234,-0.219519 2.813841,-0.159652 2.933577,-0.01995 2.414714,0.07982 1.656373,0.239475 0.738384,0.139695 0.199563,0.119737 0.239476,0.09978 0.219519,0.179607 0.139695,0.239477 0.03991,0.179607 0.01996,0.15965 v 0.179606 l -0.07983,0.15965 -0.09978,0.159651 -0.139694,0.139694 -0.199563,0.139695 -0.259432,0.07983 -0.279389,0.159649 -0.299344,0.05987 -0.478952,0.07983 -0.339257,0.03991 -0.618646,0.01995 -0.91799,0.09978 -1.776112,0.05987 -2.155282,-0.05987 -2.374801,-0.119738 -1.716242,-0.119738 -1.995632,-0.259432 -5.108816,-0.878077 z"
       id="path8" /><path
       style="fill:#ffffff;fill-opacity:1;fill-rule:evenodd;stroke:#000000;stroke-width:0.358;stroke-linecap:square;stroke-linejoin:miter;stroke-miterlimit:10;stroke-dasharray:none;stroke-opacity:1;paint-order:stroke fill markers"
       d="m 42.597639,29.501025 h 3.704165"
       id="path9" /><path
       style="fill:#ffffff;fill-opacity:1;fill-rule:evenodd;stroke:#000000;stroke-width:0.258;stroke-linecap:square;stroke-linejoin:miter;stroke-miterlimit:10;stroke-dasharray:none;stroke-opacity:1;paint-order:stroke fill markers"
       d="m 23.415359,29.501025 -7.276038,0.132291"
       id="path10" /><path
       style="fill:#a0892c;fill-opacity:1;fill-rule:evenodd;stroke:#000000;stroke-width:0.574472;stroke-linecap:square;stroke-linejoin:miter;stroke-miterlimit:10;stroke-dasharray:none;stroke-opacity:1;paint-order:stroke fill markers"
       d="m 80.593523,31.546015 6.7669,-0.49753 7.228282,-0.361843 7.535865,-0.04523 6.203,0.180918 4.25494,0.542761 1.89679,0.316613 0.51263,0.271378 0.61517,0.22615 0.56391,0.40707 0.35886,0.542765 0.10252,0.407068 0.0513,0.361839 v 0.407072 l -0.20505,0.361838 -0.25632,0.361842 -0.35885,0.31661 -0.51265,0.316609 -0.66643,0.180924 -0.71771,0.361838 -0.76896,0.135684 -1.23035,0.180922 -0.8715,0.09045 -1.5892,0.04523 -2.35815,0.22615 -4.56254,0.135699 -5.536551,-0.135699 -6.100467,-0.27138 -4.408736,-0.27138 -5.12644,-0.587992 -13.123685,-1.99012 z"
       id="path11" /><path
       style="fill:#d3bc5f;fill-opacity:1;fill-rule:evenodd;stroke:#000000;stroke-width:0.367426;stroke-linecap:square;stroke-linejoin:miter;stroke-miterlimit:10;stroke-dasharray:none;stroke-opacity:1;paint-order:stroke fill markers"
       d="m 87.649571,32.273362 4.328052,-0.318216 4.623156,-0.231431 4.819861,-0.02891 3.96739,0.115711 2.72142,0.347143 1.21316,0.202503 0.32789,0.173572 0.39345,0.144638 0.36068,0.260359 0.22952,0.347147 0.0656,0.260359 0.0328,0.231429 v 0.260357 l -0.13117,0.231429 -0.16394,0.231432 -0.22951,0.202501 -0.32789,0.202502 -0.42624,0.115726 -0.45904,0.231428 -0.49183,0.08678 -0.78691,0.115726 -0.55741,0.05785 -1.01643,0.02891 -1.50826,0.144638 -2.91815,0.08678 -3.541141,-0.08678 -3.9018,-0.173572 -2.81979,-0.173573 -3.278828,-0.376073 -8.393795,-1.272864 z"
       id="path12" /><path
       style="fill:#ffffff;fill-opacity:1;fill-rule:evenodd;stroke:#000000;stroke-width:0.361;stroke-linecap:square;stroke-linejoin:miter;stroke-miterlimit:10;stroke-dasharray:none;stroke-opacity:1;paint-order:stroke fill markers"
       d="m 110.94752,33.691288 h 6.08595"
       id="path13" /><path
       style="fill:#ffffff;fill-opacity:1;fill-rule:evenodd;stroke:#000000;stroke-width:0.361;stroke-linecap:square;stroke-linejoin:miter;stroke-miterlimit:10;stroke-dasharray:none;stroke-opacity:1;paint-order:stroke fill markers"
       d="m 79.43099,33.691288 -11.954546,0.19177"
       id="path14" /><path
       style="fill:#d3bc5f;fill-opacity:1;fill-rule:evenodd;stroke:#000000;stroke-width:0.358;stroke-linecap:square;stroke-linejoin:miter;stroke-miterlimit:10;stroke-dasharray:none;stroke-opacity:1;paint-order:stroke fill markers"
       d="m 22.216514,0.9354428 v 4.7707583 h -1.683797 v 1.0289871 h 1.683797 V 17.25892 h -1.543481 v 0.982215 h 1.496709 v 5.940062 H 11.505694 L 15.481326,6.5480998 16.416769,4.5836697 17.913477,2.6660121 19.456958,1.5902528 Z"
       id="path19" /><path
       style="fill:#000000;fill-opacity:1;fill-rule:evenodd;stroke:#000000;stroke-width:0.358;stroke-linecap:square;stroke-linejoin:miter;stroke-miterlimit:10;stroke-dasharray:none;stroke-opacity:1;paint-order:stroke fill markers"
       d="m 8.1848717,28.531007 -0.701582,0.04677 -1.6370251,1.309621 -0.7951264,1.309621 0.4209494,1.870883 0.8886706,0.748355 0.093544,0.280633 0.2338609,0.04677 0.327405,0.467722 z"
       id="path20" /><path
       style="fill:#000000;fill-opacity:1;fill-rule:evenodd;stroke:#000000;stroke-width:0.358;stroke-linecap:square;stroke-linejoin:miter;stroke-miterlimit:10;stroke-dasharray:none;stroke-opacity:1;paint-order:stroke fill markers"
       d="M 30.426813,4.2333309 71.437206,21.431238"
       id="path21" /><path
       style="fill:#6c5d53;fill-opacity:1;fill-rule:evenodd;stroke:#000000;stroke-width:0.203157;stroke-linecap:square;stroke-linejoin:miter;stroke-miterlimit:10;stroke-dasharray:none;stroke-opacity:1;paint-order:stroke fill markers"
       d="m 48.66233,33.835562 c 5.405219,1.726667 4.053915,2.327247 9.609278,2.40232 5.555365,0.07507 6.381162,1.051014 5.780582,-2.552465 -0.60058,-3.60348 3.903769,-1.276233 -0.900869,-4.128987 -4.80464,-2.852755 -7.507249,-4.128987 -9.008699,-4.429277 -1.50145,-0.30029 -7.432177,-5.555364 -6.606379,-0.675653 0.825797,4.879712 5.630436,6.381162 7.507249,6.906669 1.876812,0.525508 0.450434,1.50145 -1.726668,1.426377 -2.177102,-0.07507 -5.330147,0.375363 -5.029856,0.825798 0.300289,0.450435 0.375362,0.225218 0.375362,0.225218 z"
       id="path22" /><path
       style="fill:#6c5d53;fill-opacity:1;fill-rule:evenodd;stroke:#000000;stroke-width:0.125511;stroke-linecap:square;stroke-linejoin:miter;stroke-miterlimit:10;stroke-dasharray:none;stroke-opacity:1;paint-order:stroke fill markers"
       d="m 26.968742,23.724443 c 3.049991,0.721503 0.29516,-0.262365 1.93494,-3.57472 1.63978,-3.312355 4.248106,0.06766 4.492997,0.52473 6.221303,11.611702 2.590852,-2.426874 2.361283,-3.017195 -0.229569,-0.590321 -9.674701,-3.017194 -9.969861,-2.75483 z"
       id="path23"
       sodipodi:nodetypes="cssscc" /><path
       style="fill:#6c5d53;fill-opacity:1;fill-rule:evenodd;stroke:#000000;stroke-width:0.199205;stroke-linecap:square;stroke-linejoin:miter;stroke-miterlimit:10;stroke-dasharray:none;stroke-opacity:1;paint-order:stroke fill markers"
       d="m 102.20194,27.939823 c -5.725691,3.591572 -19.88377,0.57257 -9.525468,0.156156 10.358288,-0.416414 4.164141,-2.030019 5.569538,-3.22721 1.405397,-1.19719 3.95593,3.071054 3.95593,3.071054 z"
       id="path24"
       sodipodi:nodetypes="cssc" /><path
       style="fill:#6c5d53;fill-opacity:1;fill-rule:evenodd;stroke:#000000;stroke-width:0.358;stroke-linecap:square;stroke-linejoin:miter;stroke-miterlimit:10;stroke-dasharray:none;stroke-opacity:1;paint-order:stroke fill markers"
       d="m 141.81287,32.272776 c -4.0224,-1.590251 -8.0448,-6.641643 -8.0448,-1.403164 0,5.23848 -1.12253,6.73519 3.08696,7.577088 4.20949,0.841898 7.29645,2.993417 7.29645,-0.654812 0,-3.648226 -2.33861,-5.519112 -2.33861,-5.519112 z"
       id="path25" /><path
       style="fill:#000000;fill-opacity:1;fill-rule:evenodd;stroke:#000000;stroke-width:0.150094;stroke-linecap:square;stroke-linejoin:miter;stroke-miterlimit:10;stroke-dasharray:none;stroke-opacity:1;paint-order:stroke fill markers"
       id="path26"
       sodipodi:type="arc"
       sodipodi:cx="81.219315"
       sodipodi:cy="41.231441"
       sodipodi:rx="3.3385451"
       sodipodi:ry="3.6535397"
       sodipodi:start="0"
       sodipodi:end="3.1182811"
       sodipodi:arc-type="slice"
       d="m 84.55786,41.231441 a 3.3385451,3.6535397 0 0 1 -3.299633,3.653292 3.3385451,3.6535397 0 0 1 -3.37655,-3.56813 l 3.337638,-0.08516 z" /><path
       id="path27"
       style="fill:#87aade;fill-opacity:1;fill-rule:evenodd;stroke:#000000;stroke-width:0.32529;stroke-linecap:square;stroke-linejoin:miter;stroke-miterlimit:10;stroke-dasharray:none;stroke-opacity:1;paint-order:stroke fill markers"
       d="m 81.262845,41.469143 -1.612319,0.04731 a 1.6129137,2.0223776 0 0 0 0.05007,0.440651 l -1.158321,1.365082 0.420053,0.534706 1.006422,-1.186328 a 1.6129137,2.0223776 0 0 0 0.953389,0.772177 l 0.02293,1.147874 0.605892,-0.01819 -0.02252,-1.11098 a 1.6129137,2.0223776 0 0 0 0.987331,-0.723333 l 0.920718,1.085518 0.42005,-0.534706 -1.051401,-1.23933 a 1.6129137,2.0223776 0 0 0 0.07043,-0.580433 z" /><rect
       style="fill:#000000;fill-opacity:1;fill-rule:evenodd;stroke:#000000;stroke-width:0.358;stroke-linecap:square;stroke-linejoin:miter;stroke-miterlimit:10;stroke-dasharray:none;stroke-opacity:1;paint-order:stroke fill markers"
       id="rect29"
       width="2.9434879"
       height="0.62838507"
       x="74.479912"
       y="41.903362" /><path
       style="fill:#000000;fill-opacity:1;fill-rule:evenodd;stroke:#000000;stroke-width:0.0998462;stroke-linecap:square;stroke-linejoin:miter;stroke-miterlimit:10;stroke-dasharray:none;stroke-opacity:1;paint-order:stroke fill markers"
       id="path29"
       sodipodi:type="arc"
       sodipodi:cx="121.88754"
       sodipodi:cy="-23.39493"
       sodipodi:rx="2.4985652"
       sodipodi:ry="2.1603148"
       sodipodi:start="0"
       sodipodi:end="3.1182811"
       sodipodi:arc-type="slice"
       d="m 124.38611,-23.39493 a 2.4985652,2.1603148 0 0 1 -2.46945,2.160168 2.4985652,2.1603148 0 0 1 -2.527,-2.109812 l 2.49788,-0.05036 z"
       transform="scale(1,-1)" /><path
       id="path30"
       style="fill:#aaccff;fill-opacity:1;fill-rule:evenodd;stroke:#000000;stroke-width:0.15965;stroke-linecap:square;stroke-linejoin:miter;stroke-miterlimit:10;stroke-dasharray:none;stroke-opacity:1;paint-order:stroke fill markers"
       d="m 121.91147,23.097388 -0.98689,-0.01861 a 0.98724658,0.79585582 0 0 1 0.0307,-0.173407 l -0.709,-0.537193 0.25711,-0.21042 0.61602,0.46685 a 0.98724658,0.79585582 0 0 1 0.58356,-0.303872 l 0.014,-0.451717 0.37085,0.0072 -0.0138,0.437199 a 0.98724658,0.79585582 0 0 1 0.60434,0.28465 l 0.56356,-0.427179 0.25711,0.21042 -0.64355,0.487707 a 0.98724658,0.79585582 0 0 1 0.0431,0.228415 z" /><rect
       style="fill:#000000;fill-opacity:1;fill-rule:evenodd;stroke:#000000;stroke-width:0.379971;stroke-linecap:square;stroke-linejoin:miter;stroke-miterlimit:10;stroke-dasharray:none;stroke-opacity:1;paint-order:stroke fill markers"
       id="rect30"
       width="3.4360101"
       height="0.60641384"
       x="115.22942"
       y="22.363594" /></g></svg>
