<?xml version="1.0" encoding="UTF-8" standalone="no"?>
<!-- Created with Inkscape (http://www.inkscape.org/) -->

<svg
   width="1919.9983"
   height="1079.9982"
   viewBox="0 0 507.99927 285.74944"
   version="1.1"
   id="svg1"
   inkscape:export-filename="Raketa.png"
   inkscape:export-xdpi="96"
   inkscape:export-ydpi="96"
   inkscape:version="1.3.2 (091e20e, 2023-11-25, custom)"
   sodipodi:docname="shop.svg"
   xml:space="preserve"
   xmlns:inkscape="http://www.inkscape.org/namespaces/inkscape"
   xmlns:sodipodi="http://sodipodi.sourceforge.net/DTD/sodipodi-0.dtd"
   xmlns="http://www.w3.org/2000/svg"
   xmlns:svg="http://www.w3.org/2000/svg"><sodipodi:namedview
     id="namedview1"
     pagecolor="#ffffff"
     bordercolor="#000000"
     borderopacity="0.25"
     inkscape:showpageshadow="2"
     inkscape:pageopacity="0.0"
     inkscape:pagecheckerboard="0"
     inkscape:deskcolor="#d1d1d1"
     inkscape:document-units="mm"
     inkscape:zoom="0.51213161"
     inkscape:cx="944.09326"
     inkscape:cy="481.32159"
     inkscape:window-width="1920"
     inkscape:window-height="1009"
     inkscape:window-x="-8"
     inkscape:window-y="-8"
     inkscape:window-maximized="1"
     inkscape:current-layer="layer1" /><defs
     id="defs1" /><g
     inkscape:label="Vrstva 1"
     inkscape:groupmode="layer"
     id="layer1"
     transform="translate(-2.3102447e-4,-2.3102447e-4)"><path
       id="rect1"
       style="fill:#999999;fill-rule:evenodd;stroke:#333333;stroke-width:10.5591;stroke-linecap:square;stroke-miterlimit:10;stroke-dasharray:none;paint-order:stroke fill markers"
       d="M 5.2797811,5.2797811 V 280.47022 H 502.72022 V 5.2797811 Z M 44.166813,6.2947062 H 265.69748 c 21.28413,0 38.41884,17.4621698 38.41884,39.1521318 v 57.976822 c 0,21.68998 -17.13471,39.15162 -38.41884,39.15162 H 44.166813 c -21.284119,0 -38.4193602,-17.46164 -38.4193602,-39.15162 V 45.446838 c 0,-21.689962 17.1352412,-39.1521318 38.4193602,-39.1521318 z M 162.4614,161.42736 h 14.09423 c 2.26345,0 4.08554,1.82211 4.08554,4.08553 v 14.09423 c 0,2.26345 -1.82209,4.08554 -4.08554,4.08554 H 162.4614 c -2.26344,0 -4.08554,-1.82209 -4.08554,-4.08554 v -14.09423 c 0,-2.26342 1.8221,-4.08553 4.08554,-4.08553 z m 0,34.33485 h 14.09423 c 2.26345,0 4.08554,1.8221 4.08554,4.08554 v 14.09423 c 0,2.26344 -1.82209,4.08554 -4.08554,4.08554 H 162.4614 c -2.26344,0 -4.08554,-1.8221 -4.08554,-4.08554 v -14.09423 c 0,-2.26344 1.8221,-4.08554 4.08554,-4.08554 z m 0,35.25056 h 14.09423 c 2.26345,0 4.08554,1.8221 4.08554,4.08554 v 14.09423 c 0,2.26345 -1.82209,4.08554 -4.08554,4.08554 H 162.4614 c -2.26344,0 -4.08554,-1.82209 -4.08554,-4.08554 v -14.09423 c 0,-2.26344 1.8221,-4.08554 4.08554,-4.08554 z" /></g></svg>
