<?xml version="1.0" encoding="UTF-8" standalone="no"?>
<!-- Created with Inkscape (http://www.inkscape.org/) -->

<svg
   width="314"
   height="89.868965"
   viewBox="0 0 83.079152 23.777822"
   version="1.1"
   id="svg1"
   inkscape:version="1.3.2 (091e20e, 2023-11-25, custom)"
   sodipodi:docname="stíhačka_MYG-15.svg"
   inkscape:export-filename="stíhasčka do hry.png"
   inkscape:export-xdpi="96"
   inkscape:export-ydpi="96"
   xml:space="preserve"
   xmlns:inkscape="http://www.inkscape.org/namespaces/inkscape"
   xmlns:sodipodi="http://sodipodi.sourceforge.net/DTD/sodipodi-0.dtd"
   xmlns="http://www.w3.org/2000/svg"
   xmlns:svg="http://www.w3.org/2000/svg"><sodipodi:namedview
     id="namedview1"
     pagecolor="#ffffff"
     bordercolor="#000000"
     borderopacity="0.25"
     inkscape:showpageshadow="2"
     inkscape:pageopacity="0.0"
     inkscape:pagecheckerboard="0"
     inkscape:deskcolor="#d1d1d1"
     inkscape:document-units="mm"
     inkscape:zoom="2.8284271"
     inkscape:cx="178.36769"
     inkscape:cy="54.270446"
     inkscape:window-width="1920"
     inkscape:window-height="1009"
     inkscape:window-x="-8"
     inkscape:window-y="-8"
     inkscape:window-maximized="1"
     inkscape:current-layer="layer1" /><defs
     id="defs1" /><g
     inkscape:label="Vrstva 1"
     inkscape:groupmode="layer"
     id="layer1"><path
       id="rect28"
       style="fill:#ff0000;fill-rule:evenodd;stroke:#ffff00;stroke-width:0.25589;stroke-linecap:round;stroke-linejoin:round;stroke-miterlimit:10;paint-order:stroke markers fill"
       d="M 8.0263562,16.072044 18.690841,15.445556 v 2.982081 z"
       sodipodi:nodetypes="cccc" /><path
       id="path29"
       style="fill:#ff0000;fill-rule:evenodd;stroke:#ffff00;stroke-width:0.230385;stroke-linecap:round;stroke-linejoin:round;stroke-miterlimit:10;paint-order:stroke markers fill"
       d="m 10.06422,18.428179 8.573636,0.631673 v -3.006763 z"
       sodipodi:nodetypes="cccc" /><path
       id="rect29"
       style="fill:#666666;fill-rule:evenodd;stroke:#000000;stroke-width:0.436746;stroke-linecap:round;stroke-linejoin:round;stroke-miterlimit:10;paint-order:stroke markers fill"
       d="m 16.390013,15.506193 5.907195,-0.778945 v 4.976591 l -5.907195,-0.605847 z"
       sodipodi:nodetypes="ccccc" /><rect
       style="fill:#808080;fill-rule:evenodd;stroke:#000000;stroke-width:0.517446;stroke-linecap:round;stroke-linejoin:round;stroke-miterlimit:10;stroke-dasharray:none;paint-order:stroke markers fill"
       id="rect24"
       width="11.430157"
       height="0.39812031"
       x="68.881165"
       y="21.390512" /><rect
       style="fill:#808080;fill-rule:evenodd;stroke:#000000;stroke-width:0.599589;stroke-linecap:round;stroke-linejoin:round;stroke-miterlimit:10;stroke-dasharray:none;paint-order:stroke markers fill"
       id="rect25"
       width="7.056416"
       height="0.86588156"
       x="68.92897"
       y="21.096497" /><rect
       style="fill:#808080;fill-rule:evenodd;stroke:#000000;stroke-width:0.517446;stroke-linecap:round;stroke-linejoin:round;stroke-miterlimit:10;stroke-dasharray:none;paint-order:stroke markers fill"
       id="rect26"
       width="11.430157"
       height="0.39812031"
       x="68.094612"
       y="21.965673" /><rect
       style="fill:#808080;fill-rule:evenodd;stroke:#000000;stroke-width:0.599589;stroke-linecap:round;stroke-linejoin:round;stroke-miterlimit:10;stroke-dasharray:none;paint-order:stroke markers fill"
       id="rect27"
       width="7.056416"
       height="0.86588156"
       x="68.142418"
       y="21.671658" /><path
       style="fill:#b3b3b3;fill-rule:evenodd;stroke:#000000;stroke-width:0.813841;stroke-linecap:round;stroke-linejoin:round;stroke-miterlimit:10;paint-order:stroke markers fill"
       d="m 79.542752,15.181403 -8.785237,-1.893317 c 0,0 -1.798553,-1.479154 -3.873807,-2.189147 -2.075251,-0.709995 -6.848335,-0.354999 -8.093487,0.05917 -1.245153,0.414164 -4.634731,1.597486 -4.634731,1.597486 0,0 -19.86976,-0.851489 -20.769036,-0.496493 C 32.487179,12.614094 15.037001,1.6323525 15.037001,1.6323525 c 0,0 -1.664529,-1.92814949 -6.5759616,0.2018313 -4.9114331,2.1299817 5.8842066,13.3472172 5.8842066,13.3472172 2.66211,-0.826279 5.835951,-0.26929 5.835951,-0.26929 0.231341,0.169354 0.621942,4.919094 0.735687,4.943416 12.939808,2.766938 25.421819,2.899142 25.421819,2.899142 0,0 9.753691,0.236665 15.495223,0.05917 5.741532,-0.177496 17.617951,-3.017472 17.617951,-3.017472"
       id="path3"
       sodipodi:nodetypes="ccsscscscssccc" /><path
       style="fill:#ececec;fill-rule:evenodd;stroke:#000000;stroke-width:0.571225;stroke-linecap:round;stroke-linejoin:round;stroke-miterlimit:10;stroke-dasharray:none;paint-order:stroke markers fill"
       d="m 70.703734,13.135165 c 0,0 -3.357775,-2.027337 -4.00001,-2.147765 -1.788481,-0.335366 -5.290774,-0.373818 -7.111128,0.02192 -1.824061,0.39654 -4.445144,1.509544 -4.445144,1.509544 0,0 2.129348,0.747801 3.158588,0.879297 1.029243,0.131495 7.766104,0.657479 7.766104,0.657479 z"
       id="path22"
       sodipodi:nodetypes="csscscc" /><path
       style="fill:#ececec;fill-rule:evenodd;stroke:#000000;stroke-width:0.809453;stroke-linecap:round;stroke-linejoin:round;stroke-miterlimit:10;paint-order:stroke markers fill"
       id="path1"
       sodipodi:type="arc"
       sodipodi:cx="79.433884"
       sodipodi:cy="17.4513"
       sodipodi:rx="0.29027119"
       sodipodi:ry="2.1341012"
       sodipodi:start="3.1397264"
       sodipodi:end="3.1377387"
       sodipodi:open="true"
       sodipodi:arc-type="arc"
       d="m 79.143613,17.455282 a 0.29027119,2.1341012 0 0 1 0.289585,-2.138078 0.29027119,2.1341012 0 0 1 0.290956,2.127992 0.29027119,2.1341012 0 0 1 -0.289296,2.140193 0.29027119,2.1341012 0 0 1 -0.291243,-2.125865" /><path
       style="fill:#666666;fill-rule:evenodd;stroke:#000000;stroke-width:0.444246;stroke-linecap:round;stroke-linejoin:round;stroke-miterlimit:10;stroke-dasharray:none;paint-order:stroke markers fill"
       d="m 22.546006,6.9642893 c 0,0 0.683735,-0.8414467 -1.209688,-1.3222736 -1.893422,-0.480826 -13.9254838,0.8882188 -13.9254838,0.8882188 0,0 6.6722978,2.1594545 9.2494518,1.7988348 2.577159,-0.3606198 5.88572,-1.36478 5.88572,-1.36478 z"
       id="path7"
       sodipodi:nodetypes="cscsc" /><path
       style="fill:none;fill-rule:evenodd;stroke:#000000;stroke-width:0.401327;stroke-linecap:round;stroke-linejoin:round;stroke-miterlimit:10;stroke-dasharray:none;paint-order:stroke markers fill"
       d="M 22.485545,6.55326 17.599314,6.971712"
       id="path8" /><path
       style="fill:#666666;fill-rule:evenodd;stroke:#000000;stroke-width:0.562987;stroke-linecap:round;stroke-linejoin:round;stroke-miterlimit:10;stroke-dasharray:none;paint-order:stroke markers fill"
       id="path13"
       sodipodi:type="arc"
       sodipodi:cx="-45.794327"
       sodipodi:cy="17.37035"
       sodipodi:rx="16.620993"
       sodipodi:ry="1.4937086"
       sodipodi:start="3.1397264"
       sodipodi:end="3.1377387"
       sodipodi:open="true"
       sodipodi:arc-type="arc"
       d="m -62.41529,17.373138 a 16.620993,1.4937086 0 0 1 16.581685,-1.496493 16.620993,1.4937086 0 0 1 16.660203,1.489433 16.620993,1.4937086 0 0 1 -16.565128,1.497972 16.620993,1.4937086 0 0 1 -16.676666,-1.487943"
       transform="scale(-1,1)" /><path
       style="fill:none;fill-rule:evenodd;stroke:#000000;stroke-width:0.320147;stroke-linecap:round;stroke-linejoin:round;stroke-miterlimit:10;stroke-dasharray:none;paint-order:stroke markers fill"
       d="M 35.649056,17.370354 H 29.423632"
       id="path21" /><path
       style="fill:#999999;fill-rule:evenodd;stroke:#000000;stroke-width:0.275011;stroke-linecap:round;stroke-linejoin:round;stroke-miterlimit:10;stroke-dasharray:none;paint-order:stroke markers fill"
       id="path18"
       sodipodi:type="arc"
       sodipodi:cx="-43.433781"
       sodipodi:cy="17.225214"
       sodipodi:rx="8.1191492"
       sodipodi:ry="0.72965825"
       sodipodi:start="3.1397264"
       sodipodi:end="3.1377387"
       sodipodi:open="true"
       sodipodi:arc-type="arc"
       d="m -51.552916,17.226576 a 8.1191492,0.72965825 0 0 1 8.099948,-0.731018 8.1191492,0.72965825 0 0 1 8.138303,0.727569 8.1191492,0.72965825 0 0 1 -8.09186,0.731741 8.1191492,0.72965825 0 0 1 -8.146345,-0.726842"
       transform="scale(-1,1)" /><path
       style="fill:none;fill-rule:evenodd;stroke:#000000;stroke-width:0.41813;stroke-miterlimit:10;paint-order:stroke fill markers"
       d="m 60.473852,10.643302 c 1.328141,0.829304 0.404887,1.963349 0.527911,2.63368"
       id="path2" /><path
       style="fill:#000000;fill-rule:evenodd;stroke:#000000;stroke-width:0.390676;stroke-miterlimit:10;paint-order:stroke fill markers"
       id="path9"
       sodipodi:type="arc"
       sodipodi:cx="62.282089"
       sodipodi:cy="12.021014"
       sodipodi:rx="0.63881105"
       sodipodi:ry="0.54942918"
       sodipodi:start="3.1397264"
       sodipodi:end="3.1397014"
       sodipodi:open="true"
       sodipodi:arc-type="arc"
       d="m 61.643279,12.02204 a 0.63881105,0.54942918 0 0 1 0.637614,-0.550454 0.63881105,0.54942918 0 0 1 0.640006,0.548396 0.63881105,0.54942918 0 0 1 -0.637606,0.55046 0.63881105,0.54942918 0 0 1 -0.640014,-0.548389" /><path
       style="fill:#000000;fill-rule:evenodd;stroke:#000000;stroke-width:0.437104;stroke-miterlimit:10;paint-order:stroke fill markers"
       d="m 62.151678,12.517934 c -0.0077,0.316615 0.03279,0.649289 0.04782,0.941873"
       id="path10" /><path
       style="fill:#000000;fill-rule:evenodd;stroke:#000000;stroke-width:0.390676;stroke-miterlimit:10;paint-order:stroke fill markers"
       d="m 64.354127,13.68662 c 0.526749,-0.06562 0.580464,-0.493702 0.974598,-0.724609"
       id="path12"
       sodipodi:nodetypes="cc" /><path
       style="fill:#000000;fill-rule:evenodd;stroke:#000000;stroke-width:0.471567;stroke-miterlimit:10;paint-order:stroke fill markers"
       d="m 65.210539,12.815043 c 0.429709,0.41027 0.931307,0.931127 1.218521,1.218284"
       id="path15" /><path
       style="fill:#000000;fill-rule:evenodd;stroke:#000000;stroke-width:0.390676;stroke-miterlimit:10;paint-order:stroke fill markers"
       id="path16"
       sodipodi:type="arc"
       sodipodi:cx="65.541656"
       sodipodi:cy="13.634863"
       sodipodi:rx="0.50777286"
       sodipodi:ry="0.4658204"
       sodipodi:start="3.1397264"
       sodipodi:end="4.4170629"
       sodipodi:arc-type="slice"
       d="m 65.033885,13.635732 a 0.50777286,0.4658204 0 0 1 0.359983,-0.446523 l 0.147788,0.445654 z" /><path
       style="fill:#000000;fill-rule:evenodd;stroke:#000000;stroke-width:0.390676;stroke-miterlimit:10;paint-order:stroke fill markers"
       id="path17"
       sodipodi:type="arc"
       sodipodi:cx="65.005226"
       sodipodi:cy="13.686621"
       sodipodi:rx="0.0286646"
       sodipodi:ry="0.00796274"
       sodipodi:start="3.1397264"
       sodipodi:end="4.4170629"
       sodipodi:arc-type="slice"
       d="m 64.976562,13.686636 a 0.0286646,0.00796274 0 0 1 0.02032,-0.0076 l 0.0083,0.0076 z" /><path
       style="fill:#000000;fill-rule:evenodd;stroke:#000000;stroke-width:0.390676;stroke-miterlimit:10;paint-order:stroke fill markers"
       d="m 65.328725,13.710509 c 0.247473,-0.06374 0.553877,0.144023 0.704331,0.183142"
       id="path20" /><path
       style="fill:none;fill-rule:evenodd;stroke:#000000;stroke-width:0.395951;stroke-linecap:round;stroke-linejoin:round;stroke-miterlimit:10;stroke-dasharray:none;paint-order:stroke markers fill"
       d="m 61.599463,17.037989 -9.910965,0.293042"
       id="path19" /><path
       style="fill:#999999;fill-rule:evenodd;stroke:#000000;stroke-width:0.401327;stroke-linecap:round;stroke-linejoin:round;stroke-miterlimit:10;stroke-dasharray:none;paint-order:stroke markers fill"
       d="m 17.502557,7.139092 c 0,0 0.62892,-0.2929159 -1.112707,-0.4602961 C 14.648224,6.5114151 2.5052091,6.971712 2.5052091,6.971712 c 0,0 8.4178679,0.920592 10.7884119,0.795057 2.370551,-0.1255351 4.208936,-0.627677 4.208936,-0.627677 z"
       id="path6" /><path
       style="fill:none;fill-rule:evenodd;stroke:#000000;stroke-width:0.518944;stroke-linecap:round;stroke-linejoin:round;stroke-miterlimit:10;stroke-dasharray:none;paint-order:stroke markers fill"
       d="m 70.69244,13.095397 -4.796918,0.808964 c 0,0 -11.003726,-0.884707 -11.19724,-1.135778"
       id="path4"
       sodipodi:nodetypes="ccc" /><path
       style="fill:none;fill-rule:evenodd;stroke:#000000;stroke-width:0.559142;stroke-linecap:round;stroke-linejoin:round;stroke-miterlimit:10;stroke-dasharray:none;paint-order:stroke markers fill"
       d="M 66.627015,11.000779 66.18476,13.498405"
       id="path5" /><text
       xml:space="preserve"
       style="font-size:5.43186px;line-height:0px;font-family:Rockwell;-inkscape-font-specification:Rockwell;text-align:center;letter-spacing:0.0107788px;word-spacing:0.0155694px;text-anchor:middle;fill:#ff0000;fill-rule:evenodd;stroke:#000000;stroke-width:0.242624;stroke-linecap:round;stroke-linejoin:round;stroke-miterlimit:10;stroke-dasharray:none;paint-order:stroke markers fill"
       x="67.919807"
       y="20.327887"
       id="text22"
       transform="scale(1.0331233,0.96793868)"><tspan
         sodipodi:role="line"
         id="tspan22"
         style="fill:#ff0000;stroke-width:0.242623"
         x="67.925194"
         y="20.327887">125</tspan></text><text
       xml:space="preserve"
       style="font-size:5.43186px;line-height:0px;font-family:Rockwell;-inkscape-font-specification:Rockwell;text-align:center;letter-spacing:0.0107788px;word-spacing:0.0155694px;text-anchor:middle;fill:#ff0000;fill-rule:evenodd;stroke:#000000;stroke-width:0.242624;stroke-linecap:round;stroke-linejoin:round;stroke-miterlimit:10;stroke-dasharray:none;paint-order:stroke markers fill"
       x="20.35836"
       y="13.873777"
       id="text22-9"
       transform="scale(1.0331233,0.96793868)"><tspan
         sodipodi:role="line"
         id="tspan22-0"
         style="fill:#ff0000;stroke-width:0.242623"
         x="20.363749"
         y="13.873777">MYG</tspan></text><path
       style="fill:#0000ff;fill-rule:evenodd;stroke:#000000;stroke-width:0.518945;stroke-linecap:round;stroke-linejoin:round;stroke-miterlimit:10;stroke-dasharray:none;paint-order:stroke markers fill"
       id="path23"
       sodipodi:type="arc"
       sodipodi:cx="11.404147"
       sodipodi:cy="3.2373118"
       sodipodi:rx="2.3156774"
       sodipodi:ry="0.86782813"
       sodipodi:start="3.1397264"
       sodipodi:end="3.1377387"
       sodipodi:open="true"
       sodipodi:arc-type="arc"
       d="M 9.0884738,3.2389314 A 2.3156774,0.86782813 0 0 1 11.398675,2.3694861 2.3156774,0.86782813 0 0 1 13.719815,3.2348298 2.3156774,0.86782813 0 0 1 11.411921,4.1051351 2.3156774,0.86782813 0 0 1 9.0884869,3.2406564" /><path
       style="fill:#0000ff;fill-rule:evenodd;stroke:#000000;stroke-width:0.518945;stroke-linecap:round;stroke-linejoin:round;stroke-miterlimit:10;stroke-dasharray:none;paint-order:stroke markers fill"
       id="path24"
       sodipodi:type="arc"
       sodipodi:cx="61.367878"
       sodipodi:cy="15.107961"
       sodipodi:rx="1.9848663"
       sodipodi:ry="0.89882195"
       sodipodi:start="3.1397264"
       sodipodi:end="3.1377387"
       sodipodi:open="true"
       sodipodi:arc-type="arc"
       d="m 59.383015,15.109638 a 1.9848663,0.89882195 0 0 1 1.980172,-0.900497 1.9848663,0.89882195 0 0 1 1.989549,0.896249 1.9848663,0.89882195 0 0 1 -1.978195,0.901388 1.9848663,0.89882195 0 0 1 -1.991515,-0.895353" /><path
       style="fill:none;fill-rule:evenodd;stroke:#000000;stroke-width:0.401327;stroke-linecap:round;stroke-linejoin:round;stroke-miterlimit:10;stroke-dasharray:none;paint-order:stroke markers fill"
       d="M 22.485545,6.55326 17.599314,6.971712"
       id="path27" /><path
       style="fill:none;fill-rule:evenodd;stroke:#000000;stroke-width:0.401327;stroke-linecap:round;stroke-linejoin:round;stroke-miterlimit:10;stroke-dasharray:none;paint-order:stroke markers fill"
       d="M 7.3743957,6.55326 2.4881645,6.971712"
       id="path28" /></g></svg>
